<?xml version="1.0" standalone="no"?><!DOCTYPE svg PUBLIC "-//W3C//DTD SVG 1.1//EN" "http://www.w3.org/Graphics/SVG/1.1/DTD/svg11.dtd"><svg t="1701741065340" class="icon" viewBox="0 0 1024 1024" version="1.1" xmlns="http://www.w3.org/2000/svg" p-id="28353" width="16" height="16" xmlns:xlink="http://www.w3.org/1999/xlink"><path d="M328.078222 811.747556c12.174222 6.940444 24.519111 13.596444 37.091556 19.911111 57.059556-7.566222 129.137778-36.010667 216.234666-85.276445a12.060444 12.060444 0 0 1 17.066667 15.36c-26.510222 60.586667-50.232889 104.277333-71.111111 131.015111 27.818667 7.395556 56.035556 13.425778 84.423111 18.033778 64.170667-66.161778 99.555556-147.342222 147.512889-308.053333a45.340444 45.340444 0 0 1 86.869333 25.941333c-56.149333 188.017778-98.133333 279.722667-187.847111 363.463111a45.340444 45.340444 0 0 1-37.148444 11.776c-222.151111-30.72-437.248-137.045333-574.407111-318.862222a45.340444 45.340444 0 0 1 33.962666-72.590222c158.492444-7.736889 298.154667-66.56 403.740445-182.044445a45.340444 45.340444 0 0 1 66.901333 61.212445c-102.343111 111.957333-232.220444 178.062222-377.628444 202.069333 14.051556 14.279111 28.728889 27.875556 44.032 40.903111 48.924444 0.398222 114.631111-13.880889 196.949333-42.894222a12.060444 12.060444 0 0 1 13.425778 19.057778c-39.025778 47.729778-72.362667 81.351111-100.124445 100.977778zM951.694222 43.747556c28.956444 16.725333 38.855111 53.646222 22.186667 82.602666l-136.021333 235.52-104.675556-60.416 135.964444-235.52a60.472889 60.472889 0 0 1 82.545778-22.186666zM546.531556 360.96l15.132444-26.168889a60.472889 60.472889 0 0 1 82.545778-22.186667l209.408 120.945778c28.899556 16.668444 38.798222 53.646222 22.129778 82.545778l-15.132445 26.168889a30.208 30.208 0 0 1-41.244444 11.093333L557.624889 402.204444a30.208 30.208 0 0 1-11.093333-41.244444z" fill="#f56653" p-id="28354"></path></svg>