<?xml version="1.0" standalone="no"?><!DOCTYPE svg PUBLIC "-//W3C//DTD SVG 1.1//EN" "http://www.w3.org/Graphics/SVG/1.1/DTD/svg11.dtd">
<svg t="1685680513044" class="icon" viewBox="0 0 1117 1024" version="1.1" xmlns="http://www.w3.org/2000/svg" p-id="5468" width="17.453125" height="16"><path d="M706.64485625 824.42174346l45.40866592 68.11255986A448.6084418 448.6084418 0 0 1 511.5901792 961.99949903C263.14988838 961.99949903 62 760.39961152 62 511.99974951S263.14988838 62 511.54974951 62c248.84986114 0 450.4488706 201.5998875 450.4488706 449.99974951 0 6.87304336-0.16435547 13.66346865-0.45 20.45389482h-81.94038398c0.4078125-6.79042617 0.57216797-13.58173037 0.57216797-20.45389482 0-203.27683974-165.02686084-368.1824124-368.63065459-368.1824124C308.43638633 143.81733711 143.81733711 308.68248008 143.81733711 511.99974951s164.61904922 368.18065459 367.7324124 368.18065459c71.63081982 0 138.51818438-20.45477373 195.13465752-55.75866064z" fill="#E66D17" p-id="5469"></path><path d="M532.45364434 307.45464893h-61.36344229v245.45376914l214.77292735 128.86340449 30.6817207-50.31735469-184.09120577-109.2277705zM798.363067 511.99974951h245.45289023L921.08907266 675.63618154z" fill="#E66D17" p-id="5470"></path></svg>