<!-- Copyright 2000-2023 JetBrains s.r.o. and contributors. Use of this source code is governed by the Apache 2.0 license. -->
<svg width="16" height="16" viewBox="0 0 16 16" fill="none" xmlns="http://www.w3.org/2000/svg">
    <polygon fill="#FFAE00"
             points="8.745 9.582 3.302 12.728 3.366 2.731 7.636 .266 6.891 6.387 13.302 2.685 9.691 16.152"
             transform="rotate(30 10.302 4.109)"/>
    <path fill-rule="evenodd" clip-rule="evenodd"
          d="M7 7.50215C7 6.32441 8.29512 5.60608 9.29422 6.22967L13.2962 8.7275C14.2372 9.31485 14.2372 10.6851 13.2962 11.2725L9.29422 13.7703C8.29512 14.3939 7 13.6756 7 12.4978V7.50215ZM8.76474 7.07799C8.43171 6.87013 8 7.10957 8 7.50215V12.4978C8 12.8904 8.43171 13.1298 8.76474 12.922L12.7667 10.4241C13.0804 10.2284 13.0804 9.77161 12.7667 9.57582L8.76474 7.07799Z"
          fill="#208A3C"/>
    <path d="M8 7.50217C8 7.10959 8.43171 6.87015 8.76474 7.07801L12.7667 9.57584C13.0804 9.77163 13.0804 10.2284 12.7667 10.4242L8.76474 12.922C8.43171 13.1299 8 12.8904 8 12.4978V7.50217Z"
          fill="#F2FCF3"/>
</svg>
